# xmcd
#
# Track frame offsets:
#	150
#	15252
#	36052
#	54820
#	78599
#	99749
#	117346
#	130612
#	146934
#	162066
#	175592
#	197625
#	235879
#	255704
#	273629
#	288329
#	297796
#	321915
#	344565
#
# Disc length: 4785 seconds
#
# Revision: 0
# Processed by: cddbd v1.5.2PL0 Copyright (c) Steve Scherf et al.
# Submitted via: EasyCDDAExtractor 9.0.0.1
#
DISCID=1012af13
DTITLE=Los Charros De La Comuna De Lumaco - consagrados
DYEAR=2008
DGENRE=tropical ranchero
TTITLE0=a la sombra de mi madre
TTITLE1=aquel inmenso amor
TTITLE2=como tu querer
TTITLE3=corazon de hierro
TTITLE4=échame a mi la culpa
TTITLE5=ingrata
TTITLE6=la novia fea
TTITLE7=la sureña
TTITLE8=la vaca negra
TTITLE9=mala mala
TTITLE10=maldito dinero
TTITLE11=mix cumbias - mi negrita se marcho - la del moño colorado - oh! niña 
TTITLE11=mia
TTITLE12=mix corridos - paloma mensajera - tus desprecios - la calandria
TTITLE13=nancy
TTITLE14=el golpe traidor
TTITLE15=la cachetoncita
TTITLE16=sin problema
TTITLE17=te perdone una vez
TTITLE18=vida de mi vida
EXTD=
EXTT0=
EXTT1=
EXTT2=
EXTT3=
EXTT4=
EXTT5=
EXTT6=
EXTT7=
EXTT8=
EXTT9=
EXTT10=
EXTT11=
EXTT12=
EXTT13=
EXTT14=
EXTT15=
EXTT16=
EXTT17=
EXTT18=
PLAYORDER=
